<svg xmlns="http://www.w3.org/2000/svg" version="1.0" preserveAspectRatio="xMidYMid meet" viewBox="70.7 29.3 158.3 116.7">
  <g transform="translate(0.000000,320.000000) scale(0.100000,-0.100000)" fill="#000000" stroke="none">
    <path d="M1555 2829 c-88 -43 -231 -113 -317 -155 l-158 -77 0 -69 0 -68 35 0 35 0 0 51 0 50 244 120 c135 65 250 119 255 119 8 0 11 -155 11 -495 l0 -495 -255 2 -255 3 -3 165 c-4 187 -18 247 -82 328 -70 90 -195 152 -307 152 l-51 0 5 -69 c13 -173 142 -318 313 -353 l54 -11 3 -141 3 -141 603 -3 602 -2 -2 231 -3 231 -282 136 -283 137 -2 216 -3 216 -160 -78z m-659 -464 c93 -41 164 -135 180 -236 l7 -41 -34 7 c-101 20 -197 92 -242 181 -19 36 -37 111 -30 118 9 9 66 -5 119 -29z m1084 -85 l245 -119 3 -176 2 -175 -255 0 -255 0 0 295 c0 162 3 295 8 295 4 0 117 -54 252 -120z"/>
    <path d="M1392 2504 c-70 -18 -132 -62 -170 -120 -33 -49 -56 -131 -50 -179 3 -29 4 -30 55 -28 152 6 283 145 283 299 0 43 -1 44 -32 43 -18 0 -57 -7 -86 -15z m48 -74 c0 -29 -35 -94 -67 -126 -26 -26 -96 -63 -120 -64 -37 0 10 115 63 158 32 25 84 50 112 51 6 1 12 -8 12 -19z"/>
  </g>
</svg>